<svg fill="#AC6AFF" version="1.1" id="Capa_1" xmlns="http://www.w3.org/2000/svg" xmlns:xlink="http://www.w3.org/1999/xlink" width="48" height="48" viewBox="0 0 214.87 214.87" xml:space="preserve" stroke="#AC6AFF" stroke-width="0.00214868">

    <g id="SVGRepo_bgCarrier" stroke-width="0"/>
  
    <g id="SVGRepo_tracerCarrier" stroke-linecap="round" stroke-linejoin="round" stroke="#CCCCCC" stroke-width="1.718944"/>
  
    <g id="SVGRepo_iconCarrier">
      <g>
        <g>
          <polygon points="94.33,45.395 73.364,81.711 115.295,81.711"/>
          <polygon points="141.504,42.369 99.572,42.369 120.538,78.685"/>
          <polygon points="167.712,87.764 125.781,87.764 146.746,124.079"/>
          <polygon points="115.295,87.764 73.364,87.764 94.33,124.079"/>
          <polygon points="68.121,90.79 47.156,127.105 89.09,127.105"/>
          <polygon points="120.538,90.79 99.572,127.105 141.504,127.105"/>
          <polygon points="120.538,0 99.572,36.316 141.504,36.316"/>
          <polygon points="141.504,133.158 99.572,133.158 120.538,169.474"/>
          <polygon points="94.33,136.185 73.364,172.5 115.295,172.5"/>
          <polygon points="115.295,178.553 73.364,178.553 94.33,214.868"/>
        </g>
      </g>
    </g>
  
  </svg>
  